<?xml version="1.0" ?><!DOCTYPE svg  PUBLIC '-//W3C//DTD SVG 1.1//EN'  'http://www.w3.org/Graphics/SVG/1.1/DTD/svg11.dtd'><svg height="32px" style="fill-rule:evenodd;clip-rule:evenodd;stroke-linejoin:round;stroke-miterlimit:2;" version="1.1" width="32px" xml:space="preserve" xmlns="http://www.w3.org/2000/svg" xmlns:serif="http://www.serif.com/" xmlns:xlink="http://www.w3.org/1999/xlink"><g id="Layer2"><path d="M6.5,23.5l-1.5,-0c-0.276,-0 -0.5,0.224 -0.5,0.5l-0,3c-0,0.276 0.224,0.5 0.5,0.5l10,0c0.276,0 0.5,-0.224 0.5,-0.5l-0,-3c-0,-0.276 -0.224,-0.5 -0.5,-0.5l-1.5,-0l0,-1.293l0.561,-0.561c0.281,-0.281 0.439,-0.662 0.439,-1.06c0,-1.916 0,-9.895 0,-11.586c0,-0.815 -0.651,-1.479 -1.461,-1.5l-0.039,-0c-0.175,-0 -0.344,0.03 -0.5,0.085l0,-0.585c0,-0.828 -0.672,-1.5 -1.5,-1.5c-0.195,-0 -0.381,0.037 -0.553,0.105c-0.173,-0.636 -0.756,-1.105 -1.447,-1.105c-0.828,0 -1.5,0.672 -1.5,1.5l0,0.585c-0.156,-0.055 -0.325,-0.085 -0.5,-0.085c-0.828,-0 -1.5,0.672 -1.5,1.5l0,6.793l-1.146,-1.147c-0.748,-0.747 -1.961,-0.747 -2.708,0c-0.747,0.747 -0.747,1.96 0,2.708c1.738,1.737 4.314,5.103 4.853,5.813c0.001,0.001 0.001,0.79 0.001,1.333Zm12,-0l-1.5,-0c-0.276,-0 -0.5,0.224 -0.5,0.5l-0,3c-0,0.276 0.224,0.5 0.5,0.5l10,0c0.276,0 0.5,-0.224 0.5,-0.5l-0,-3c-0,-0.276 -0.224,-0.5 -0.5,-0.5l-1.5,-0l-0,-1.332c0.538,-0.709 3.116,-4.077 4.854,-5.814c0.747,-0.748 0.747,-1.961 -0,-2.708c-0.747,-0.747 -1.96,-0.747 -2.708,0l-1.146,1.147l-0,-6.793c-0,-0.828 -0.672,-1.5 -1.5,-1.5c-0.175,-0 -0.344,0.03 -0.5,0.085l-0,-0.585c-0,-0.828 -0.672,-1.5 -1.5,-1.5c-0.691,0 -1.274,0.469 -1.447,1.105c-0.172,-0.068 -0.358,-0.105 -0.553,-0.105c-0.828,-0 -1.5,0.672 -1.5,1.5l-0,0.585c-0.156,-0.055 -0.325,-0.085 -0.5,-0.085c-0.828,0 -1.5,0.672 -1.5,1.5c-0,1.691 -0,9.67 -0,11.586c-0,0.398 0.158,0.779 0.439,1.06l0.561,0.561l0,1.293Zm-1,1l9,0c-0,0 -0,2 -0,2c-0,0 -9,0 -9,0l-0,-2Zm-3,0l-0,2c-0,0 -9,0 -9,0c-0,0 -0,-2 -0,-2l9,0Zm-7,-1l5,-0l0,-1.5c-0,-0.133 0.053,-0.26 0.146,-0.354c0,0 0.708,-0.707 0.708,-0.707c0.093,-0.093 0.146,-0.221 0.146,-0.353l0,-11.586c0,-0.276 -0.224,-0.5 -0.5,-0.5c-0.276,0 -0.5,0.224 -0.5,0.5l-0,5c0,0.276 -0.224,0.5 -0.5,0.5c-0.276,0 -0.5,-0.224 -0.5,-0.5l0,-7c0,-0.276 -0.224,-0.5 -0.5,-0.5c-0.276,-0 -0.5,0.224 -0.5,0.5l-0,7c-0,0.276 -0.224,0.5 -0.5,0.5c-0.276,0 -0.5,-0.224 -0.5,-0.5l0,-8c0,-0.276 -0.224,-0.5 -0.5,-0.5c-0.276,0 -0.5,0.224 -0.5,0.5c0,1.926 -0,8 -0,8c-0,0.276 -0.224,0.5 -0.5,0.5c-0.276,-0 -0.5,-0.224 -0.5,-0.5l0,-6c-0,-0.276 -0.224,-0.5 -0.5,-0.5c-0.276,-0 -0.5,0.224 -0.5,0.5c0,1.926 -0,9 -0,9c-0,0.276 -0.224,0.5 -0.5,0.5c-0.276,-0 -0.5,-0.224 -0.5,-0.5l0,-0.793l-1.854,-1.853c-0.356,-0.357 -0.936,-0.357 -1.292,-0c-0.357,0.356 -0.357,0.936 -0,1.292c1.984,1.985 5.046,6.053 5.046,6.053c0.065,0.087 0.1,0.193 0.1,0.301l-0,1.5Zm12,0l5,-0l-0,-1.5c-0,-0.108 0.035,-0.214 0.1,-0.301c0,0 3.062,-4.068 5.046,-6.053c0.357,-0.356 0.357,-0.936 0,-1.292c-0.356,-0.357 -0.936,-0.357 -1.292,-0l-1.854,1.853l-0,0.793c0,0.276 -0.224,0.5 -0.5,0.5c-0.276,0 -0.5,-0.224 -0.5,-0.5c-0,0 -0,-7.074 -0,-9c-0,-0.276 -0.224,-0.5 -0.5,-0.5c-0.276,0 -0.5,0.224 -0.5,0.5l-0,6c0,0.276 -0.224,0.5 -0.5,0.5c-0.276,0 -0.5,-0.224 -0.5,-0.5c-0,0 -0,-6.074 -0,-8c-0,-0.276 -0.224,-0.5 -0.5,-0.5c-0.276,0 -0.5,0.224 -0.5,0.5l-0,8c-0,0.276 -0.224,0.5 -0.5,0.5c-0.276,-0 -0.5,-0.224 -0.5,-0.5l-0,-7c-0,-0.276 -0.224,-0.5 -0.5,-0.5c-0.276,-0 -0.5,0.224 -0.5,0.5l-0,7c-0,0.276 -0.224,0.5 -0.5,0.5c-0.276,-0 -0.5,-0.224 -0.5,-0.5l-0,-5c-0,-0.276 -0.224,-0.5 -0.5,-0.5c-0.276,0 -0.5,0.224 -0.5,0.5l-0,11.586c-0,0.132 0.053,0.26 0.146,0.353l0.708,0.707c0.093,0.094 0.146,0.221 0.146,0.354l-0,1.5Zm4.5,-7c-1.38,0 -2.5,1.12 -2.5,2.5c-0,0.276 0.224,0.5 0.5,0.5c0.276,0 0.5,-0.224 0.5,-0.5c-0,-0.828 0.672,-1.5 1.5,-1.5c0.276,0 0.5,-0.224 0.5,-0.5c0,-0.276 -0.224,-0.5 -0.5,-0.5Zm-16,1c0.828,0 1.5,0.672 1.5,1.5c0,0.276 0.224,0.5 0.5,0.5c0.276,0 0.5,-0.224 0.5,-0.5c0,-1.38 -1.12,-2.5 -2.5,-2.5c-0.276,0 -0.5,0.224 -0.5,0.5c-0,0.276 0.224,0.5 0.5,0.5Z" id="pray"/></g></svg>