<?xml version="1.0" ?><!DOCTYPE svg  PUBLIC '-//W3C//DTD SVG 1.1//EN'  'http://www.w3.org/Graphics/SVG/1.1/DTD/svg11.dtd'><svg height="32px" style="fill-rule:evenodd;clip-rule:evenodd;stroke-linejoin:round;stroke-miterlimit:2;" version="1.1" width="32px" xml:space="preserve" xmlns="http://www.w3.org/2000/svg" xmlns:serif="http://www.serif.com/" xmlns:xlink="http://www.w3.org/1999/xlink"><path d="M25,24c-0,0 -6,0 -6,0l-0,-1.792c0,-0.13 -0.051,-0.259 -0.146,-0.354l-0.561,-0.561c-0.188,-0.188 -0.293,-0.442 -0.293,-0.707l-0,-11.586c-0,-0.552 0.448,-1 1,-1c0.117,0 0.229,0.02 0.333,0.057c0.153,0.054 0.323,0.03 0.456,-0.063c0.132,-0.094 0.211,-0.246 0.211,-0.409l-0,-0.585c-0,-0.552 0.448,-1 1,-1c0.13,-0 0.254,0.025 0.368,0.07c0.132,0.052 0.281,0.046 0.408,-0.018c0.127,-0.063 0.222,-0.178 0.259,-0.315c0.116,-0.425 0.504,-0.737 0.965,-0.737c0.552,0 1,0.448 1,1c-0,0 -0,0.585 -0,0.585c-0,0.163 0.079,0.315 0.211,0.409c0.133,0.093 0.303,0.117 0.456,0.063c0.104,-0.037 0.216,-0.057 0.333,-0.057c0.552,-0 1,0.448 1,1c-0,0 -0,6.793 -0,6.793c-0,0.202 0.122,0.384 0.309,0.462c0.186,0.077 0.402,0.034 0.545,-0.109l1.146,-1.146c0.552,-0.552 1.448,-0.552 2,0c0.552,0.552 0.552,1.448 -0,2c-0.011,0.011 -0.022,0.023 -0.033,0.036c0,-0 -4.614,5.61 -4.821,5.818c-0.094,0.094 -0.146,0.22 -0.146,0.353l-0,1.793Zm-12,-1.793l0,1.793l-6,0c0,0 -0.01,-1.946 -0.01,-1.946c-0.016,-0.082 -0.053,-0.159 -0.107,-0.224l-4.853,-5.797c-0.01,-0.012 -0.02,-0.023 -0.03,-0.033c-0.552,-0.552 -0.552,-1.448 0,-2c0.552,-0.552 1.448,-0.552 2,-0c0,0 1.146,1.146 1.146,1.146c0.143,0.143 0.359,0.186 0.545,0.109c0.187,-0.078 0.309,-0.26 0.309,-0.462l0,-6.793c0,-0.552 0.448,-1 1,-1c0.117,-0 0.229,0.02 0.333,0.057c0.153,0.054 0.323,0.03 0.456,-0.063c0.132,-0.094 0.211,-0.246 0.211,-0.409l0,-0.585c0,-0.552 0.448,-1 1,-1c0.461,0 0.849,0.312 0.965,0.737c0.037,0.137 0.132,0.252 0.259,0.315c0.127,0.064 0.276,0.07 0.408,0.018c0.114,-0.045 0.238,-0.07 0.368,-0.07c0.552,-0 1,0.448 1,1l0,0.585c-0,0.163 0.079,0.315 0.211,0.409c0.133,0.093 0.303,0.117 0.456,0.063c0.104,-0.037 0.216,-0.057 0.333,-0.057c0.552,0 1,0.448 1,1l-0,11.586c0,0.265 -0.105,0.519 -0.293,0.707c0,-0 -0.561,0.561 -0.561,0.561c-0.093,0.093 -0.146,0.221 -0.146,0.353Z" style="fill:#fbeeac;"/><path d="M15,24.375c0,-0.207 -0.204,-0.375 -0.455,-0.375l-9.09,0c-0.251,0 -0.455,0.168 -0.455,0.375l-0,2.25c-0,0.207 0.204,0.375 0.455,0.375l9.09,0c0.251,0 0.455,-0.168 0.455,-0.375l0,-2.25Zm2.455,-0.375c-0.251,0 -0.455,0.168 -0.455,0.375l0,2.25c0,0.207 0.204,0.375 0.455,0.375l9.09,0c0.251,0 0.455,-0.168 0.455,-0.375l-0,-2.25c-0,-0.207 -0.204,-0.375 -0.455,-0.375l-9.09,0Z" style="fill:#28527a;"/><path d="M6.5,23.5l-1.5,-0c-0.276,-0 -0.5,0.224 -0.5,0.5l-0,3c-0,0.276 0.224,0.5 0.5,0.5l10,0c0.276,0 0.5,-0.224 0.5,-0.5l-0,-3c-0,-0.276 -0.224,-0.5 -0.5,-0.5l-1.5,-0l0,-1.293l0.561,-0.561c0.281,-0.281 0.439,-0.662 0.439,-1.06c0,-1.916 0,-9.895 0,-11.586c0,-0.815 -0.651,-1.479 -1.461,-1.5l-0.039,-0c-0.175,-0 -0.344,0.03 -0.5,0.085l0,-0.585c0,-0.828 -0.672,-1.5 -1.5,-1.5c-0.195,-0 -0.381,0.037 -0.553,0.105c-0.173,-0.636 -0.756,-1.105 -1.447,-1.105c-0.828,0 -1.5,0.672 -1.5,1.5l0,0.585c-0.156,-0.055 -0.325,-0.085 -0.5,-0.085c-0.828,-0 -1.5,0.672 -1.5,1.5l0,6.793l-1.146,-1.147c-0.748,-0.747 -1.961,-0.747 -2.708,0c-0.747,0.747 -0.747,1.96 0,2.708c1.738,1.737 4.314,5.103 4.853,5.813c0.001,0.001 0.001,0.79 0.001,1.333Zm12,-0l-1.5,-0c-0.276,-0 -0.5,0.224 -0.5,0.5l-0,3c-0,0.276 0.224,0.5 0.5,0.5l10,0c0.276,0 0.5,-0.224 0.5,-0.5l-0,-3c-0,-0.276 -0.224,-0.5 -0.5,-0.5l-1.5,-0l-0,-1.332c0.538,-0.709 3.116,-4.077 4.854,-5.814c0.747,-0.748 0.747,-1.961 -0,-2.708c-0.747,-0.747 -1.96,-0.747 -2.708,0l-1.146,1.147l-0,-6.793c-0,-0.828 -0.672,-1.5 -1.5,-1.5c-0.175,-0 -0.344,0.03 -0.5,0.085l-0,-0.585c-0,-0.828 -0.672,-1.5 -1.5,-1.5c-0.691,0 -1.274,0.469 -1.447,1.105c-0.172,-0.068 -0.358,-0.105 -0.553,-0.105c-0.828,-0 -1.5,0.672 -1.5,1.5l-0,0.585c-0.156,-0.055 -0.325,-0.085 -0.5,-0.085c-0.828,0 -1.5,0.672 -1.5,1.5c-0,1.691 -0,9.67 -0,11.586c-0,0.398 0.158,0.779 0.439,1.06l0.561,0.561l0,1.293Zm-1,1l9,0c-0,0 -0,2 -0,2c-0,0 -9,0 -9,0l-0,-2Zm-3,0l-0,2c-0,0 -9,0 -9,0c-0,0 -0,-2 -0,-2l9,0Zm-7,-1l5,-0l0,-1.5c-0,-0.133 0.053,-0.26 0.146,-0.354c0,0 0.708,-0.707 0.708,-0.707c0.093,-0.093 0.146,-0.221 0.146,-0.353l0,-11.586c0,-0.276 -0.224,-0.5 -0.5,-0.5c-0.276,0 -0.5,0.224 -0.5,0.5l-0,5c0,0.276 -0.224,0.5 -0.5,0.5c-0.276,0 -0.5,-0.224 -0.5,-0.5l0,-7c0,-0.276 -0.224,-0.5 -0.5,-0.5c-0.276,-0 -0.5,0.224 -0.5,0.5l-0,7c-0,0.276 -0.224,0.5 -0.5,0.5c-0.276,0 -0.5,-0.224 -0.5,-0.5l0,-8c0,-0.276 -0.224,-0.5 -0.5,-0.5c-0.276,0 -0.5,0.224 -0.5,0.5c0,1.926 -0,8 -0,8c-0,0.276 -0.224,0.5 -0.5,0.5c-0.276,-0 -0.5,-0.224 -0.5,-0.5l0,-6c-0,-0.276 -0.224,-0.5 -0.5,-0.5c-0.276,-0 -0.5,0.224 -0.5,0.5c0,1.926 -0,9 -0,9c-0,0.276 -0.224,0.5 -0.5,0.5c-0.276,-0 -0.5,-0.224 -0.5,-0.5l0,-0.793l-1.854,-1.853c-0.356,-0.357 -0.936,-0.357 -1.292,-0c-0.357,0.356 -0.357,0.936 -0,1.292c1.984,1.985 5.046,6.053 5.046,6.053c0.065,0.087 0.1,0.193 0.1,0.301l-0,1.5Zm12,0l5,-0l-0,-1.5c-0,-0.108 0.035,-0.214 0.1,-0.301c0,0 3.062,-4.068 5.046,-6.053c0.357,-0.356 0.357,-0.936 0,-1.292c-0.356,-0.357 -0.936,-0.357 -1.292,-0l-1.854,1.853l-0,0.793c0,0.276 -0.224,0.5 -0.5,0.5c-0.276,0 -0.5,-0.224 -0.5,-0.5c-0,0 -0,-7.074 -0,-9c-0,-0.276 -0.224,-0.5 -0.5,-0.5c-0.276,0 -0.5,0.224 -0.5,0.5l-0,6c0,0.276 -0.224,0.5 -0.5,0.5c-0.276,0 -0.5,-0.224 -0.5,-0.5c-0,0 -0,-6.074 -0,-8c-0,-0.276 -0.224,-0.5 -0.5,-0.5c-0.276,0 -0.5,0.224 -0.5,0.5l-0,8c-0,0.276 -0.224,0.5 -0.5,0.5c-0.276,-0 -0.5,-0.224 -0.5,-0.5l-0,-7c-0,-0.276 -0.224,-0.5 -0.5,-0.5c-0.276,-0 -0.5,0.224 -0.5,0.5l-0,7c-0,0.276 -0.224,0.5 -0.5,0.5c-0.276,-0 -0.5,-0.224 -0.5,-0.5l-0,-5c-0,-0.276 -0.224,-0.5 -0.5,-0.5c-0.276,0 -0.5,0.224 -0.5,0.5l-0,11.586c-0,0.132 0.053,0.26 0.146,0.353l0.708,0.707c0.093,0.094 0.146,0.221 0.146,0.354l-0,1.5Zm4.5,-7c-1.38,0 -2.5,1.12 -2.5,2.5c-0,0.276 0.224,0.5 0.5,0.5c0.276,0 0.5,-0.224 0.5,-0.5c-0,-0.828 0.672,-1.5 1.5,-1.5c0.276,0 0.5,-0.224 0.5,-0.5c0,-0.276 -0.224,-0.5 -0.5,-0.5Zm-16,1c0.828,0 1.5,0.672 1.5,1.5c0,0.276 0.224,0.5 0.5,0.5c0.276,0 0.5,-0.224 0.5,-0.5c0,-1.38 -1.12,-2.5 -2.5,-2.5c-0.276,0 -0.5,0.224 -0.5,0.5c-0,0.276 0.224,0.5 0.5,0.5Z" id="pray"/></svg>